<?xml version="1.0" encoding="utf-8"?>
<!-- Generator: Adobe Illustrator 26.0.3, SVG Export Plug-In . SVG Version: 6.00 Build 0)  -->
<svg version="1.0" id="Layer_1" xmlns="http://www.w3.org/2000/svg" xmlns:xlink="http://www.w3.org/1999/xlink" x="0px" y="0px"
	 viewBox="190 48 708 708" style="enable-background:new 0 0 1104 830;" xml:space="preserve">
<style type="text/css">
	.st0{fill:url(#SVGID_1_);}
	.st1{fill:#FFFFFF;}
	.st2{fill:none;}
</style>
<linearGradient id="SVGID_1_" gradientUnits="userSpaceOnUse" x1="573" y1="774.27" x2="573" y2="111.27" gradientTransform="matrix(1 0 0 -1 -21 857.77)">
	<stop  offset="0" style="stop-color:#18BFFB"/>
	<stop  offset="1" style="stop-color:#2072F3"/>
</linearGradient>
<path class="st0" d="M749.5,83.5H354.4c-73.9,0-133.9,59.9-133.9,133.8c0,0,0,0.1,0,0.1v395.2c0,73.9,59.9,133.8,133.9,133.8
	c0,0,0,0,0.1,0h395.2c74,0,133.9-60,133.9-133.9c0,0,0,0,0,0V217.4C883.5,143.4,823.5,83.5,749.5,83.5z"/>
<path class="st1" d="M549.1,235.8l13.4-23.2c8.2-14.5,26.7-19.6,41.2-11.4s19.6,26.7,11.4,41.2c-0.1,0.1-0.1,0.2-0.2,0.3
	L485.6,466.7h93.6c30.3,0,47.3,35.6,34.1,60.3H339c-16.7,0-30.2-13.5-30.2-30.2c0-16.7,13.5-30.2,30.2-30.2c0,0,0,0,0,0h76.9
	l98.4-170.6l-30.8-53.4c-8.3-14.5-3.3-33,11.1-41.3s33-3.3,41.3,11.1L549.1,235.8L549.1,235.8z M432.8,558.1l-29,50.3
	c-8.3,14.5-26.8,19.4-41.3,11.1c-14.5-8.3-19.4-26.8-11.1-41.3L373,541C397.4,533.5,417.2,539.3,432.8,558.1L432.8,558.1z
	 M682.6,466.9H761c16.7-0.3,30.4,13,30.7,29.6c0.3,16.7-13,30.4-29.6,30.7c-0.4,0-0.7,0-1.1,0h-43.6l29.4,51
	c8.3,14.5,3.4,32.9-11.1,41.3c-14.5,8.3-32.9,3.4-41.3-11.1l0,0c-49.6-85.9-86.7-150.3-111.5-193.1c-25.3-43.6-7.2-87.4,10.6-102.2
	C613.4,347.1,643.1,398.4,682.6,466.9L682.6,466.9z"/>
</svg>


